<?xml version="1.0" encoding="utf-8"?>

<!-- Uploaded to: SVG Repo, www.svgrepo.com, Generator: SVG Repo Mixer Tools -->
<svg fill="#000000" height="800px" width="800px" version="1.1" id="Icons" xmlns="http://www.w3.org/2000/svg" xmlns:xlink="http://www.w3.org/1999/xlink" 
	 viewBox="0 0 32 32" xml:space="preserve">
<path d="M26.9,8.8c-0.4-0.4-1-0.3-1.4,0.1c-0.4,0.4-0.3,1,0.1,1.4c0,0,2.4,2.2,2.4,5.3V21h-1.8l0.6-3.8c0.5-2.9-0.6-5.9-2.9-7.7
	l-0.2-0.2c-3.1-2.5-7.3-3-11-1.4c-1.5,0.7-2.6,1.9-3.2,3.5l-1.2,3.5c3.4,0.8,6.7,1.9,9.9,3.1c0.5,0.2,0.8,0.8,0.6,1.3
	c-0.2,0.4-0.5,0.6-0.9,0.6c-0.1,0-0.2,0-0.4-0.1c-3.3-1.3-6.8-2.4-10.2-3.2l-4.8,3.4c-0.4,0.3-0.5,0.8-0.3,1.2
	c0.2,0.4,0.7,0.7,1.1,0.6c1.7-0.3,3.5,0,5,0.9l4.2,2.7c1.5,1,3.2,1.4,4.9,1.4c2.4,0,4.7-0.9,6.4-2.6l1.4-1.4H29c0.6,0,1-0.4,1-1
	v-6.3C30,11.6,27,9,26.9,8.8z"/>
</svg>