<svg xmlns="http://www.w3.org/2000/svg" xmlns:xlink="http://www.w3.org/1999/xlink" width="500" zoomAndPan="magnify" viewBox="0 0 375 374.999991" height="500" preserveAspectRatio="xMidYMid meet" version="1.0"><defs><clipPath id="a28c5c2ba8"><path d="M 64 111 L 177 111 L 177 283.507812 L 64 283.507812 Z M 64 111 " clip-rule="nonzero"/></clipPath><clipPath id="4229dbecb4"><path d="M 193 111 L 307 111 L 307 283.507812 L 193 283.507812 Z M 193 111 " clip-rule="nonzero"/></clipPath><clipPath id="a198696a77"><path d="M 32.898438 132 L 171 132 L 171 283.507812 L 32.898438 283.507812 Z M 32.898438 132 " clip-rule="nonzero"/></clipPath><clipPath id="9b4d83e88d"><path d="M 199 132 L 337.398438 132 L 337.398438 283.507812 L 199 283.507812 Z M 199 132 " clip-rule="nonzero"/></clipPath><clipPath id="18dbf0fed3"><path d="M 188 143 L 274 143 L 274 283.507812 L 188 283.507812 Z M 188 143 " clip-rule="nonzero"/></clipPath><clipPath id="491c563b83"><path d="M 97 97 L 182 97 L 182 283.507812 L 97 283.507812 Z M 97 97 " clip-rule="nonzero"/></clipPath><clipPath id="b66c8372b8"><path d="M 192 79.507812 L 239 79.507812 L 239 126 L 192 126 Z M 192 79.507812 " clip-rule="nonzero"/></clipPath></defs><g clip-path="url(#a28c5c2ba8)"><path fill="#ffffff" d="M 86.617188 217.507812 L 114.945312 111.363281 L 95.867188 116.527344 L 64.382812 236.371094 C 127.207031 236.730469 157.617188 257.671875 176.410156 283.707031 C 157.832031 244.761719 127.28125 226.472656 86.617188 217.507812 Z M 86.617188 217.507812 " fill-opacity="1" fill-rule="nonzero"/></g><g clip-path="url(#4229dbecb4)"><path fill="#ffffff" d="M 306.007812 236.371094 L 274.519531 116.457031 L 255.445312 111.292969 L 283.628906 217.4375 C 243.035156 226.402344 212.554688 244.691406 193.980469 283.636719 C 212.699219 257.746094 243.179688 236.730469 306.007812 236.371094 Z M 306.007812 236.371094 " fill-opacity="1" fill-rule="nonzero"/></g><g clip-path="url(#a198696a77)"><path fill="#ffffff" d="M 53.195312 244.90625 L 82.671875 132.808594 L 66.460938 137.113281 L 32.898438 263.695312 C 79.660156 255.664062 138.972656 257.527344 170.671875 283.707031 C 140.332031 248.277344 93.140625 242.46875 53.195312 244.90625 Z M 53.195312 244.90625 " fill-opacity="1" fill-rule="nonzero"/></g><g clip-path="url(#9b4d83e88d)"><path fill="#ffffff" d="M 287.644531 132.808594 L 317.050781 244.90625 C 277.175781 242.46875 229.984375 248.277344 199.71875 283.707031 C 231.417969 257.457031 290.65625 255.59375 337.492188 263.695312 L 303.925781 137.113281 Z M 287.644531 132.808594 " fill-opacity="1" fill-rule="nonzero"/></g><g clip-path="url(#18dbf0fed3)"><path fill="#ffffff" d="M 273.085938 210.265625 L 255.585938 145.429688 C 221.160156 135.320312 191.039062 161.496094 189.03125 194.488281 C 188.3125 205.890625 190.539062 218.011719 192.042969 230.492188 C 194.625 250.285156 193.765625 263.839844 188.527344 283.636719 C 202.585938 248.132812 235.792969 219.734375 273.085938 210.265625 Z M 273.085938 210.265625 " fill-opacity="1" fill-rule="nonzero"/></g><g clip-path="url(#491c563b83)"><path fill="#ffffff" d="M 161.203125 197.355469 C 162.710938 181.148438 173.109375 166.085938 178.558594 151.457031 C 191.828125 116.242188 160.488281 92.859375 127.28125 98.671875 L 97.230469 210.335938 C 134.523438 219.804688 167.730469 248.207031 181.714844 283.777344 L 181.714844 272.230469 C 181.714844 250.429688 172.535156 236.660156 166.367188 223.390625 C 162.066406 213.78125 160.488281 205.53125 161.203125 197.355469 Z M 161.203125 197.355469 " fill-opacity="1" fill-rule="nonzero"/></g><g clip-path="url(#b66c8372b8)"><path fill="#ffffff" d="M 192.472656 102.472656 C 192.472656 115.164062 202.730469 125.421875 215.425781 125.421875 C 227.976562 125.421875 238.230469 115.164062 238.230469 102.472656 C 238.230469 89.847656 227.976562 79.59375 215.425781 79.59375 C 202.730469 79.59375 192.472656 89.847656 192.472656 102.472656 Z M 192.472656 102.472656 " fill-opacity="1" fill-rule="nonzero"/></g></svg>