<svg xmlns="http://www.w3.org/2000/svg" xmlns:xlink="http://www.w3.org/1999/xlink" width="500" zoomAndPan="magnify" viewBox="0 0 375 374.999991" height="500" preserveAspectRatio="xMidYMid meet" version="1.0"><defs><g/><clipPath id="d9a6cdf532"><path d="M 67 74 L 178 74 L 178 244.5 L 67 244.5 Z M 67 74 " clip-rule="nonzero"/></clipPath><clipPath id="83adafa8de"><path d="M 195 74 L 307 74 L 307 244.5 L 195 244.5 Z M 195 74 " clip-rule="nonzero"/></clipPath><clipPath id="e5dad8a50e"><path d="M 36.046875 95 L 173 95 L 173 244.5 L 36.046875 244.5 Z M 36.046875 95 " clip-rule="nonzero"/></clipPath><clipPath id="2d60cc5767"><path d="M 201 95 L 337.546875 95 L 337.546875 244.5 L 201 244.5 Z M 201 95 " clip-rule="nonzero"/></clipPath><clipPath id="f20c3b3940"><path d="M 189 105 L 274 105 L 274 244.5 L 189 244.5 Z M 189 105 " clip-rule="nonzero"/></clipPath><clipPath id="85c79b5f1e"><path d="M 99 60 L 184 60 L 184 244.5 L 99 244.5 Z M 99 60 " clip-rule="nonzero"/></clipPath><clipPath id="b30adb9c25"><path d="M 193 42.75 L 240 42.75 L 240 89 L 193 89 Z M 193 42.75 " clip-rule="nonzero"/></clipPath></defs><g clip-path="url(#d9a6cdf532)"><path fill="#1c478b" d="M 89.167969 179.214844 L 117.179688 74.253906 L 98.316406 79.359375 L 67.179688 197.863281 C 129.304688 198.21875 159.375 218.929688 177.957031 244.671875 C 159.589844 206.164062 129.378906 188.078125 89.167969 179.214844 Z M 89.167969 179.214844 " fill-opacity="1" fill-rule="nonzero"/></g><g clip-path="url(#83adafa8de)"><path fill="#1c478b" d="M 306.109375 197.863281 L 274.976562 79.289062 L 256.109375 74.179688 L 283.980469 179.140625 C 243.839844 188.007812 213.699219 206.09375 195.332031 244.601562 C 213.84375 219 243.984375 198.21875 306.109375 197.863281 Z M 306.109375 197.863281 " fill-opacity="1" fill-rule="nonzero"/></g><g clip-path="url(#e5dad8a50e)"><path fill="#1c478b" d="M 56.117188 206.304688 L 85.265625 95.457031 L 69.238281 99.710938 L 36.046875 224.886719 C 82.285156 216.941406 140.9375 218.785156 172.285156 244.671875 C 142.285156 209.636719 95.621094 203.894531 56.117188 206.304688 Z M 56.117188 206.304688 " fill-opacity="1" fill-rule="nonzero"/></g><g clip-path="url(#2d60cc5767)"><path fill="#1c478b" d="M 287.953125 95.457031 L 317.03125 206.304688 C 277.597656 203.894531 230.933594 209.636719 201.007812 244.671875 C 232.351562 218.714844 290.933594 216.871094 337.242188 224.886719 L 304.050781 99.710938 Z M 287.953125 95.457031 " fill-opacity="1" fill-rule="nonzero"/></g><g clip-path="url(#f20c3b3940)"><path fill="#1c478b" d="M 273.558594 172.050781 L 256.253906 107.9375 C 222.210938 97.941406 192.425781 123.824219 190.4375 156.449219 C 189.730469 167.722656 191.929688 179.710938 193.417969 192.050781 C 195.972656 211.625 195.121094 225.027344 189.941406 244.601562 C 203.84375 209.496094 236.679688 181.410156 273.558594 172.050781 Z M 273.558594 172.050781 " fill-opacity="1" fill-rule="nonzero"/></g><g clip-path="url(#85c79b5f1e)"><path fill="#1c478b" d="M 162.921875 159.285156 C 164.410156 143.257812 174.695312 128.363281 180.085938 113.894531 C 193.203125 79.074219 162.214844 55.957031 129.378906 61.699219 L 99.660156 172.121094 C 136.539062 181.484375 169.375 209.566406 183.207031 244.742188 L 183.207031 233.324219 C 183.207031 211.765625 174.128906 198.148438 168.027344 185.027344 C 163.773438 175.527344 162.214844 167.371094 162.921875 159.285156 Z M 162.921875 159.285156 " fill-opacity="1" fill-rule="nonzero"/></g><g clip-path="url(#b30adb9c25)"><path fill="#1c478b" d="M 193.84375 65.457031 C 193.84375 78.011719 203.984375 88.152344 216.539062 88.152344 C 228.949219 88.152344 239.089844 78.011719 239.089844 65.457031 C 239.089844 52.976562 228.949219 42.835938 216.539062 42.835938 C 203.984375 42.835938 193.84375 52.976562 193.84375 65.457031 Z M 193.84375 65.457031 " fill-opacity="1" fill-rule="nonzero"/></g><g fill="#1c478b" fill-opacity="1"><g transform="translate(37.574561, 301.790474)"><g><path d="M 20.292969 0 L 65.636719 -45.273438 L 45.339844 -45.273438 L 10.179688 -10.179688 Z M 15.339844 -31.085938 L 29.527344 -45.273438 L 1.152344 -45.273438 Z M 15.339844 -31.085938 "/></g></g></g><g fill="#1c478b" fill-opacity="1"><g transform="translate(118.074952, 301.790474)"><g><path d="M 16.902344 -45.273438 C 8.007812 -42.082031 1.5625 -32.511719 1.5625 -22.601562 C 1.5625 -12.691406 8.007812 -3.191406 16.902344 0 Z M 21.992188 -45.273438 L 21.992188 -16.359375 C 21.992188 -11.605469 22.738281 -7.804688 26.335938 -4.207031 C 29.117188 -1.425781 32.171875 -0.136719 36.585938 0 L 36.585938 -45.273438 Z M 21.992188 -45.273438 "/></g></g></g><g fill="#1c478b" fill-opacity="1"><g transform="translate(171.764688, 301.790474)"><g><path d="M 37.671875 0 L 37.671875 -28.914062 C 37.671875 -33.664062 36.925781 -37.46875 33.328125 -41.0625 C 30.542969 -43.847656 27.488281 -45.136719 23.078125 -45.273438 L 23.078125 0 Z M 17.988281 0 L 17.988281 -45.273438 L 3.394531 -45.273438 L 3.394531 0 Z M 17.988281 0 "/></g></g></g><g fill="#1c478b" fill-opacity="1"><g transform="translate(226.268923, 301.790474)"><g><path d="M 17.988281 0 L 17.988281 -45.273438 L 3.394531 -45.273438 L 3.394531 0 Z M 37.738281 0 L 23.078125 -14.660156 L 23.078125 0 Z M 23.078125 -45.273438 L 23.078125 -30.613281 L 37.738281 -45.273438 Z M 23.078125 -45.273438 "/></g></g></g><g fill="#1c478b" fill-opacity="1"><g transform="translate(277.718786, 301.790474)"><g><path d="M 16.902344 -45.273438 C 8.007812 -42.082031 1.5625 -32.511719 1.5625 -22.601562 C 1.5625 -12.691406 8.007812 -3.191406 16.902344 0 Z M 21.992188 -45.273438 L 21.992188 -16.359375 C 21.992188 -11.605469 22.738281 -7.804688 26.335938 -4.207031 C 29.117188 -1.425781 32.171875 -0.136719 36.585938 0 L 36.585938 -45.273438 Z M 21.992188 -45.273438 "/></g></g></g></svg>