<svg xmlns="http://www.w3.org/2000/svg" xmlns:xlink="http://www.w3.org/1999/xlink" width="500" zoomAndPan="magnify" viewBox="0 0 375 374.999991" height="500" preserveAspectRatio="xMidYMid meet" version="1.0"><defs><clipPath id="4e53957dea"><path d="M 73 109 L 185 109 L 185 280.109375 L 73 280.109375 Z M 73 109 " clip-rule="nonzero"/></clipPath><clipPath id="5f0676dce1"><path d="M 201 109 L 313 109 L 313 280.109375 L 201 280.109375 Z M 201 109 " clip-rule="nonzero"/></clipPath><clipPath id="76102c253a"><path d="M 41.902344 130 L 179 130 L 179 280.109375 L 41.902344 280.109375 Z M 41.902344 130 " clip-rule="nonzero"/></clipPath><clipPath id="df99cbdef2"><path d="M 207 130 L 344 130 L 344 280.109375 L 207 280.109375 Z M 207 130 " clip-rule="nonzero"/></clipPath><clipPath id="9f80019e34"><path d="M 196 140 L 281 140 L 281 280.109375 L 196 280.109375 Z M 196 140 " clip-rule="nonzero"/></clipPath><clipPath id="4bfd2b6fe8"><path d="M 105 95 L 190 95 L 190 280.109375 L 105 280.109375 Z M 105 95 " clip-rule="nonzero"/></clipPath><clipPath id="2a4f4e86af"><path d="M 200 77.609375 L 246 77.609375 L 246 124 L 200 124 Z M 200 77.609375 " clip-rule="nonzero"/></clipPath></defs><g clip-path="url(#4e53957dea)"><path fill="#1c478b" d="M 95.171875 214.460938 L 123.265625 109.199219 L 104.347656 114.320312 L 73.125 233.167969 C 135.429688 233.523438 165.585938 254.292969 184.21875 280.109375 C 165.796875 241.488281 135.5 223.351562 95.171875 214.460938 Z M 95.171875 214.460938 " fill-opacity="1" fill-rule="nonzero"/></g><g clip-path="url(#5f0676dce1)"><path fill="#1c478b" d="M 312.738281 233.167969 L 281.515625 114.25 L 262.597656 109.128906 L 290.550781 214.390625 C 250.292969 223.28125 220.066406 241.417969 201.644531 280.039062 C 220.207031 254.363281 250.433594 233.523438 312.738281 233.167969 Z M 312.738281 233.167969 " fill-opacity="1" fill-rule="nonzero"/></g><g clip-path="url(#76102c253a)"><path fill="#1c478b" d="M 62.027344 241.632812 L 91.261719 130.464844 L 75.1875 134.734375 L 41.902344 260.265625 C 88.273438 252.300781 147.09375 254.148438 178.527344 280.109375 C 148.445312 244.972656 101.644531 239.214844 62.027344 241.632812 Z M 62.027344 241.632812 " fill-opacity="1" fill-rule="nonzero"/></g><g clip-path="url(#df99cbdef2)"><path fill="#1c478b" d="M 294.53125 130.464844 L 323.691406 241.632812 C 284.148438 239.214844 237.347656 244.972656 207.335938 280.109375 C 238.769531 254.078125 297.519531 252.230469 343.964844 260.265625 L 310.675781 134.734375 Z M 294.53125 130.464844 " fill-opacity="1" fill-rule="nonzero"/></g><g clip-path="url(#9f80019e34)"><path fill="#1c478b" d="M 280.09375 207.277344 L 262.738281 142.984375 C 228.601562 132.953125 198.726562 158.914062 196.738281 191.632812 C 196.027344 202.941406 198.230469 214.960938 199.722656 227.335938 C 202.285156 246.964844 201.429688 260.410156 196.238281 280.039062 C 210.179688 244.832031 243.109375 216.667969 280.09375 207.277344 Z M 280.09375 207.277344 " fill-opacity="1" fill-rule="nonzero"/></g><g clip-path="url(#4bfd2b6fe8)"><path fill="#1c478b" d="M 169.140625 194.476562 C 170.632812 178.402344 180.949219 163.464844 186.351562 148.957031 C 199.511719 114.035156 168.429688 90.847656 135.5 96.609375 L 105.699219 207.351562 C 142.683594 216.738281 175.613281 244.902344 189.480469 280.179688 L 189.480469 268.730469 C 189.480469 247.109375 180.378906 233.453125 174.261719 220.292969 C 169.996094 210.765625 168.429688 202.585938 169.140625 194.476562 Z M 169.140625 194.476562 " fill-opacity="1" fill-rule="nonzero"/></g><g clip-path="url(#2a4f4e86af)"><path fill="#1c478b" d="M 200.152344 100.378906 C 200.152344 112.96875 210.320312 123.140625 222.910156 123.140625 C 235.355469 123.140625 245.527344 112.96875 245.527344 100.378906 C 245.527344 87.863281 235.355469 77.691406 222.910156 77.691406 C 210.320312 77.691406 200.152344 87.863281 200.152344 100.378906 Z M 200.152344 100.378906 " fill-opacity="1" fill-rule="nonzero"/></g></svg>