<?xml version="1.0" encoding="iso-8859-1"?>
<!-- Uploaded to: SVG Repo, www.svgrepo.com, Generator: SVG Repo Mixer Tools -->
<svg fill="#000000" height="800px" width="800px" version="1.1" id="Layer_1" xmlns="http://www.w3.org/2000/svg" xmlns:xlink="http://www.w3.org/1999/xlink" 
	 viewBox="0 0 511.996 511.996" xml:space="preserve">
<g>
	<g>
		<g>
			<path d="M461.484,221.7c-47.189,20.011-109.909,16.789-191.616-9.472c-3.691-0.896-7.275-2.069-10.731-3.499
				c-2.581-1.067-5.44-1.045-8.021-0.021c-3.371,1.365-6.869,2.496-11.2,3.584c-80.021,25.771-142.763,29.269-189.333,9.621
				c-4.117-1.771-8.896-0.747-11.968,2.56c-3.051,3.285-3.733,8.128-1.685,12.117c47.104,92.373,129.92,165.035,216.107,189.675
				c0.96,0.277,1.941,0.405,2.923,0.405s1.963-0.128,2.923-0.405c86.272-24.661,169.152-97.408,216.235-189.909
				c2.048-4.011,1.344-8.832-1.707-12.117C470.38,220.953,465.601,219.972,461.484,221.7z"/>
			<path d="M507.628,130.052c-3.989-2.923-9.472-2.709-13.248,0.491c-12.459,10.667-59.755,12.288-101.376,3.413
				c-21.568-4.608-41.941-15.595-64.107-34.56c-13.504-11.541-31.744-16.512-50.859-12.715c-8.192,1.621-15.872,5.099-22.677,10.197
				c-6.848-5.184-14.592-8.704-22.848-10.325c-19.093-3.733-37.376,1.195-50.859,12.736c-22.208,18.965-42.581,29.931-64.107,34.56
				c-42.091,8.981-87.381,7.445-99.947-3.264c-3.755-3.221-9.237-3.435-13.248-0.491c-3.989,2.923-5.44,8.235-3.499,12.779
				c31.04,72.661,111.573,88.597,233.173,48.896c7.723-1.685,14.912-4.928,21.163-9.536c6.229,4.651,13.227,7.893,20.309,9.387
				c44.395,14.421,83.456,21.76,116.139,21.76c59.328,0,99.541-23.723,119.531-70.507
				C513.068,138.287,511.617,132.975,507.628,130.052z"/>
		</g>
	</g>
</g>
</svg>