<?xml version="1.0" encoding="iso-8859-1"?>
<!-- Uploaded to: SVG Repo, www.svgrepo.com, Generator: SVG Repo Mixer Tools -->
<svg fill="#000000" height="800px" width="800px" version="1.1" id="Layer_1" xmlns="http://www.w3.org/2000/svg" xmlns:xlink="http://www.w3.org/1999/xlink" 
	 viewBox="0 0 510.325 510.325" xml:space="preserve">
<g>
	<g>
		<path d="M407.796,47.37c-1.216-13.461-2.389-26.197-3.328-37.568c-0.427-5.035-4.309-9.088-9.344-9.707
			c-4.885-0.683-9.771,2.368-11.392,7.168c-13.461,39.829-24.725,57.579-36.565,57.579c-1.28,0-2.667-0.171-4.139-0.533
			c-6.784-1.643-15.253-4.352-24.405-7.232c-21.291-6.741-45.397-14.379-63.445-14.379c-18.048,0-42.155,7.637-63.445,14.4
			c-9.152,2.901-17.621,5.589-24.405,7.232c-1.472,0.363-2.859,0.533-4.16,0.533c-11.84,0-23.104-17.749-36.565-57.579
			c-1.621-4.8-6.357-7.851-11.392-7.168c-5.013,0.597-8.917,4.651-9.344,9.707c-0.939,11.371-2.112,24.085-3.328,37.568
			c-5.76,63.232-12.928,141.931-7.253,178.304c2.923,18.645,28.309,106.667,63.872,180.267V234.698
			c0-5.888,4.779-10.667,10.667-10.667s10.667,4.779,10.667,10.667v211.029c19.84,33.131,41.707,58.283,64,64.597V192.031
			c0-5.888,4.779-10.667,10.667-10.667s10.667,4.779,10.667,10.667v318.293c22.293-6.315,44.16-31.467,64-64.597V277.365
			c0-5.888,4.779-10.667,10.667-10.667c5.888,0,10.667,4.779,10.667,10.667v128.576c35.563-73.6,60.971-161.621,63.872-180.267
			C420.724,189.301,413.556,110.602,407.796,47.37z M318.751,108.042c-1.408,4.587-5.632,7.531-10.197,7.531
			c-1.045,0-2.091-0.149-3.136-0.469c-36.075-11.115-64.427-11.115-100.501,0c-5.653,1.792-11.605-1.408-13.333-7.04
			c-1.749-5.632,1.408-11.605,7.04-13.333c40.171-12.395,72.917-12.395,113.088,0C317.343,96.437,320.5,102.41,318.751,108.042z"/>
	</g>
</g>
</svg>