<?xml version="1.0" encoding="iso-8859-1"?>
<!-- Uploaded to: SVG Repo, www.svgrepo.com, Generator: SVG Repo Mixer Tools -->
<svg fill="#000000" height="800px" width="800px" version="1.1" id="Layer_1" xmlns="http://www.w3.org/2000/svg" xmlns:xlink="http://www.w3.org/1999/xlink" 
	 viewBox="0 0 491.033 491.033" xml:space="preserve">
<g>
	<g>
		<g>
			<path d="M490.846,127.48c-0.085-10.261-0.192-20.715-0.192-31.296c0-5.888-4.779-10.667-10.667-10.667
				s-10.667,4.779-10.667,10.667c0,67.285-15.509,116.309-46.123,145.728c-38.933,37.397-98.453,38.272-135.829,37.099
				c-3.499-25.045-21.035-44.16-42.048-44.16c-20.8,0-38.165,18.688-41.856,44.139c-37.547,1.045-78.848-0.661-112.469-21.184
				c-43.627-26.624-66.411-79.637-69.675-162.069c-0.235-5.867-5.355-10.347-11.072-10.219C4.361,85.752-0.226,90.702,0.009,96.59
				c0,0,0,0.021,0,0.043c0.683,17.451,0.853,34.56,1.003,51.072c0.683,72.555,1.28,135.211,45.717,170.197
				c53.867,42.347,134.293,87.616,198.613,87.616s144.768-45.269,198.592-87.616C492.254,279.864,491.614,209.251,490.846,127.48z
				 M430.729,301.134c-48.683,38.315-126.485,83.051-185.387,83.051c-58.901,0-136.704-44.736-185.387-83.051
				c-23.829-18.731-32.32-50.005-35.477-88.192c13.141,27.627,31.552,48.533,55.403,63.104
				c41.579,25.365,90.944,25.707,133.952,23.936c5.739-0.235,10.176-6.059,10.176-11.797c0-17.344,9.771-32,21.333-32
				c11.563,0,21.333,14.656,21.248,33.131c0,5.739,4.501,10.432,10.24,10.667c39.083,1.6,112.085,4.501,161.152-42.667
				c11.733-11.285,21.525-24.875,29.355-40.725C463.518,253.134,453.961,282.872,430.729,301.134z"/>
			<path d="M113.289,237.667c11.285,0,24.725-8.192,39.573-17.216c22.869-13.952,51.371-31.275,81.835-28.267
				c3.605,0,7.147-0.704,10.688-2.091c3.627,1.387,6.4,2.219,11.733,2.027c29.333-2.987,57.899,14.357,80.747,28.309
				c21.675,13.184,40.363,24.597,53.717,11.285c4.075-4.075,5.589-9.792,4.16-15.68c-6.805-28.032-98.219-75.605-126.827-84.949
				c-1.067-0.448-2.283-0.832-4.011-1.301c-3.136-0.875-5.909-1.408-8.875-1.6c-3.605,0-7.147,0.704-10.688,2.091
				c-3.584-1.387-7.211-1.984-11.456-2.048c-2.176,0.149-4.885,0.683-8.875,1.792c-1.408,0.384-2.773,0.832-2.645,0.875
				c-27.968,8.917-120.555,56.917-127.403,85.141c-1.429,5.888,0.107,11.605,4.181,15.68
				C103.347,235.918,108.083,237.667,113.289,237.667z M228.851,151.224c0.469-0.171,2.176-0.64,2.624-0.875
				c1.579-0.427,2.923-0.789,3.2-0.832c1.536,0,3.2,0.555,5.184,1.749c3.371,2.005,7.552,2.005,10.923,0
				c2.027-1.195,3.691-1.771,4.373-1.792c1.067,0.085,2.411,0.427,5.483,1.28c0.405,0.171,0.789,0.341,1.195,0.469
				c31.232,9.941,89.835,44.885,107.904,62.805c-6.08-2.816-14.208-7.787-20.8-11.797c-24.213-14.784-57.323-35.051-92.928-31.381
				c-1.515,0-3.179-0.555-5.205-1.771c-3.371-2.005-7.552-2.005-10.923,0c-2.005,1.195-3.669,1.771-4.117,1.813
				c-36.715-3.691-69.781,16.533-94.016,31.317c-6.805,4.16-15.339,9.344-21.227,12.224
				C138.078,196.643,197.363,161.251,228.851,151.224z"/>
		</g>
	</g>
</g>
</svg>