<?xml version="1.0" encoding="iso-8859-1"?>
<!-- Uploaded to: SVG Repo, www.svgrepo.com, Generator: SVG Repo Mixer Tools -->
<svg fill="#000000" height="800px" width="800px" version="1.1" id="Layer_1" xmlns="http://www.w3.org/2000/svg" xmlns:xlink="http://www.w3.org/1999/xlink" 
	 viewBox="0 0 511.968 511.968" xml:space="preserve">
<g>
	<g>
		<g>
			<path d="M507.628,130.006c-3.989-2.923-9.472-2.709-13.248,0.491c-13.141,11.243-57.707,12.736-101.376,3.413
				c-21.568-4.608-41.92-15.595-64.107-34.56c-13.76-11.755-32.277-16.384-50.859-12.715c-8.192,1.621-15.872,5.099-22.677,10.197
				c-6.848-5.184-14.592-8.704-22.848-10.325c-18.603-3.627-37.12,1.003-50.859,12.736c-22.187,18.987-42.56,29.952-64.107,34.56
				c-43.84,9.365-86.805,7.979-99.947-3.264c-3.755-3.2-9.237-3.435-13.248-0.491c-3.989,2.923-5.44,8.235-3.499,12.779
				c1.899,4.437,3.968,8.64,6.229,12.651c28.053,124.288,131.2,237.995,245.995,270.784c0.96,0.277,1.941,0.405,2.923,0.405
				c0.981,0,1.963-0.128,2.965-0.427c113.365-32.405,219.115-149.248,246.336-272.043c2.027-3.712,4.096-7.36,5.824-11.413
				C513.046,138.241,511.596,132.929,507.628,130.006z M255.98,404.886C163.969,377.302,77.633,290.433,40.406,192.385
				c0.704,0.469,1.536,0.768,2.24,1.216c4.16,2.667,8.491,5.099,13.12,7.211c2.048,0.939,4.267,1.664,6.4,2.475
				c3.2,1.259,6.485,2.453,9.92,3.456c2.517,0.747,5.099,1.429,7.744,2.048c3.861,0.896,7.893,1.6,11.989,2.219
				c2.581,0.363,5.141,0.811,7.829,1.067c5.568,0.555,11.371,0.853,17.344,0.917c2.667,0.043,5.419-0.043,8.171-0.107
				c4.885-0.128,9.92-0.405,15.061-0.832c2.539-0.213,5.035-0.363,7.637-0.661c7.467-0.832,15.168-1.963,23.147-3.413
				c2.283-0.405,4.651-0.96,6.976-1.429c6.4-1.28,12.949-2.773,19.669-4.437c2.837-0.704,5.696-1.429,8.597-2.219
				c8.512-2.304,17.216-4.821,26.219-7.723c0.533-0.171,1.003-0.277,1.536-0.448c7.744-1.685,14.912-4.949,21.184-9.557
				c5.397,4.032,11.413,6.763,17.515,8.448c1.109,0.32,2.133,0.853,3.264,1.109c22.144,7.168,42.837,12.565,62.101,16.149
				c2.325,0.427,4.437,0.597,6.741,0.981c7.147,1.195,14.293,2.389,21.035,3.072c5.781,0.597,11.179,0.683,16.661,0.896
				c2.944,0.107,6.059,0.469,8.917,0.469c0.149,0,0.32,0.021,0.469,0.021c7.787,0,15.189-0.469,22.293-1.28
				c1.387-0.149,2.624-0.491,3.989-0.683c5.675-0.789,11.2-1.728,16.427-3.072c1.984-0.491,3.797-1.216,5.717-1.792
				c4.352-1.323,8.64-2.709,12.672-4.416c2.027-0.853,3.904-1.899,5.845-2.837c3.627-1.792,7.189-3.691,10.539-5.824
				c0.725-0.469,1.579-0.789,2.304-1.28C434.476,290.305,348.097,377.281,255.98,404.886z M474.86,160.555
				c-2.688,2.987-5.76,5.568-8.853,8.128c-1.92,1.6-3.776,3.264-5.867,4.715c-3.584,2.453-7.488,4.565-11.499,6.528
				c-2.112,1.045-4.245,2.069-6.485,2.965c-4.331,1.728-8.896,3.157-13.675,4.373c-2.475,0.619-5.035,1.173-7.637,1.664
				c-4.971,0.939-10.112,1.664-15.531,2.112c-2.987,0.235-6.123,0.32-9.237,0.405c-5.483,0.149-11.072,0.192-16.96-0.107
				c-3.733-0.213-7.723-0.683-11.627-1.067c-5.76-0.576-11.499-1.131-17.643-2.133c-5.333-0.875-11.008-2.133-16.597-3.307
				c-5.184-1.088-10.197-1.984-15.616-3.328c-11.371-2.859-23.147-6.165-35.52-10.197c-0.341-0.107-0.683-0.192-1.045-0.277
				c-6.955-1.493-13.163-5.056-17.984-10.304c-2.027-2.197-4.864-3.456-7.829-3.456c-0.021,0-0.021,0-0.021,0
				c-2.901,0-5.675,1.216-7.701,3.328c-0.021,0-0.085,0.021-0.149,0.064c-4.8,5.184-10.987,8.725-18.944,10.496
				c-0.128,0.043-0.256,0.085-0.384,0.128c-11.776,3.819-22.955,6.955-33.792,9.707c-1.771,0.448-3.605,0.96-5.355,1.365
				c-10.496,2.539-20.501,4.523-30.08,6.016c-1.365,0.213-2.731,0.427-4.053,0.619c-9.941,1.429-19.456,2.347-28.373,2.624
				c-0.341,0.021-0.683,0.043-1.024,0.043c-40.405,1.088-70.037-9.877-89.195-32.256c26.005,4.16,59.136,0.96,85.803-4.779
				c24.832-5.312,48.875-18.112,73.515-39.189c8.747-7.467,20.715-10.389,32.875-8c9.024,1.771,15.403,6.955,19.157,10.965
				c2.005,2.155,4.843,3.392,7.787,3.392c2.923,0,5.739-1.216,7.765-3.349c3.755-3.968,10.091-9.088,19.072-10.859
				c12.16-2.411,24.128,0.533,32.875,8c24.619,21.056,48.683,33.877,73.515,39.189c28.693,6.123,61.675,8.725,87.168,4.629
				C475.414,159.766,475.18,160.214,474.86,160.555z"/>
			<path d="M287.98,213.334h-64c-5.888,0-10.667,4.779-10.667,10.667s4.779,10.667,10.667,10.667h64
				c5.888,0,10.667-4.779,10.667-10.667S293.868,213.334,287.98,213.334z"/>
		</g>
	</g>
</g>
</svg>