<?xml version="1.0" encoding="iso-8859-1"?>
<!-- Uploaded to: SVG Repo, www.svgrepo.com, Generator: SVG Repo Mixer Tools -->
<svg fill="#000000" height="800px" width="800px" version="1.1" id="Layer_1" xmlns="http://www.w3.org/2000/svg" xmlns:xlink="http://www.w3.org/1999/xlink" 
	 viewBox="0 0 512 512" xml:space="preserve">
<g>
	<g>
		<path d="M501.333,42.992c-21.184,0-40.235,14.016-47.403,34.859c-5.269,15.317-14.677,33.387-25.579,54.293
			c-5.291,10.155-11.029,21.419-16.917,33.28c-21.013-42.901-56.917-81.664-73.195-97.941
			c-14.592-14.571-35.499-23.04-54.016-23.019c-10.581,0.107-20.288,2.901-28.203,8.043c-7.915-5.141-17.621-7.936-28.203-8.043
			c-18.411-0.085-39.424,8.427-54.016,23.019c-16.363,16.363-52.629,55.467-73.259,97.877
			c-5.867-11.819-11.605-23.061-16.896-33.216c-10.901-20.907-20.309-38.976-25.579-54.293
			C50.88,57.008,31.851,42.992,10.667,42.992C4.779,42.992,0,47.771,0,53.659c0,39.232,61.952,218.923,86.336,271.189
			c23.061,49.408,83.883,128.107,156.267,142.208c2.688,0.683,9.536,2.368,12.395,1.856c0.597,0.064,1.237,0.085,1.877,0.085
			c4.608,0,10.069-1.301,11.84-1.813c73.067-14.251,133.888-92.949,156.949-142.357C450.048,272.582,512,92.891,512,53.659
			C512,47.771,507.221,42.992,501.333,42.992z M111.339,194.608c11.2-33.152,39.467-74.005,77.547-112.085
			c10.347-10.368,25.024-16.768,38.357-16.768h0.341c6.059,0.064,14.549,1.472,20.715,7.851c4.032,4.16,11.349,4.16,15.36,0
			c6.165-6.4,14.656-7.787,20.715-7.851c13.333-0.043,28.288,6.315,38.741,16.768c38.059,38.08,66.347,78.933,78.059,113.344
			c7.275,14.912,2.624,27.669,0.277,32.469c-1.024,2.091-2.112,3.733-3.179,5.163c-0.32,0.427-0.619,0.747-0.917,1.109
			c-0.427,0.491-0.811,0.875-1.216,1.28c0.085-0.427,0.149-0.832,0.171-1.259c1.067-17.963,4.373-72.576-60.885-105.195
			c-9.344-4.672-21.568-7.36-34.496-10.197c-14.827-3.264-30.165-6.613-38.784-12.693c-3.691-2.603-8.597-2.603-12.288,0
			c-8.597,6.08-23.957,9.451-38.784,12.693c-12.928,2.837-25.152,5.525-34.496,10.197c-65.259,32.64-61.973,87.253-60.885,105.195
			c0.021,0.427,0.128,0.896,0.256,1.344c-0.469-0.448-0.917-0.896-1.408-1.472c-0.256-0.299-0.491-0.533-0.725-0.875
			c-1.088-1.451-2.219-3.157-3.285-5.312c-0.341-0.704-0.747-1.899-1.152-2.923C107.072,219.398,104.683,208.411,111.339,194.608z
			 M375.232,228.934c-0.171,0.235-0.107,0.555-0.256,0.811c-26.304,29.568-66.389,45.568-118.592,47.488
			c-53.099-1.899-93.269-18.005-119.573-47.701c-0.981-26.56,4.8-58.731,49.301-80.981c6.976-3.499,17.941-5.909,29.525-8.448
			c14.208-3.136,28.843-6.336,40.363-12.373c11.499,6.037,26.133,9.259,40.363,12.373c11.584,2.56,22.549,4.949,29.525,8.448
			C370.069,170.63,376.107,202.502,375.232,228.934z M406.315,315.803c-20.395,43.712-76.907,117.803-142.379,130.603
			c-2.603,0.704-5.824,1.195-8.832,1.259c-1.621,0.256-4.459-0.555-7.723-1.408c-64.811-12.651-121.301-86.741-141.717-130.453
			C83.008,267.248,32.576,119.942,22.933,67.206c6.784,3.392,12.203,9.579,14.955,17.579c5.781,16.832,15.531,35.541,26.816,57.216
			c7.637,14.656,16.128,30.955,24.811,49.344c-0.363,0.96-0.555,1.899-0.875,2.837c-0.363,1.131-0.704,2.24-1.003,3.371
			c-0.491,1.835-0.896,3.648-1.195,5.461c-0.192,1.173-0.405,2.368-0.512,3.541c-0.192,1.685-0.256,3.349-0.277,4.992
			c-0.021,1.237-0.064,2.496,0,3.712c0.064,1.536,0.256,3.008,0.448,4.501c0.171,1.259,0.299,2.539,0.533,3.776
			c0.277,1.387,0.64,2.688,1.003,4.032c0.341,1.237,0.619,2.496,1.045,3.669c0.427,1.237,0.96,2.389,1.451,3.584
			c0.491,1.173,0.939,2.389,1.515,3.499c0.512,1.024,1.131,1.941,1.685,2.901c1.92,3.285,4.032,6.336,6.4,8.917
			c8.256,8.896,18.112,12.245,26.432,8.939c0.725-0.299,1.621-0.875,2.453-1.387c0.085-0.064,0.171-0.085,0.277-0.149
			c0.811-0.512,1.579-1.173,2.411-1.92c0.235-0.213,0.491-0.341,0.725-0.576c29.824,26.709,72.235,41.685,124.352,43.541
			c51.456-1.856,93.76-16.832,123.563-43.541c0.299,0.299,0.597,0.448,0.896,0.704c0.747,0.661,1.408,1.237,2.133,1.707
			c0.277,0.171,0.512,0.299,0.789,0.448c0.704,0.384,1.451,0.917,2.069,1.152c2.112,0.832,4.331,1.237,6.571,1.237
			c2.133,0,4.288-0.491,6.464-1.195c0.384-0.128,0.747-0.277,1.131-0.427c1.835-0.704,3.627-1.643,5.419-2.816
			c0.32-0.213,0.64-0.384,0.939-0.597c2.027-1.429,4.032-3.072,5.931-5.099c10.517-11.328,17.237-30.357,12.821-49.877
			c-0.043-0.171-0.064-0.32-0.107-0.491c-0.491-2.133-1.173-4.245-1.941-6.379c-0.235-0.683-0.363-1.344-0.619-2.027
			c8.683-18.389,17.173-34.667,24.811-49.344c11.264-21.653,21.035-40.384,26.816-57.216c2.752-8,8.171-14.187,14.955-17.579
			C479.403,119.92,428.971,267.248,406.315,315.803z"/>
	</g>
</g>
</svg>