<?xml version="1.0" encoding="iso-8859-1"?>
<!-- Uploaded to: SVG Repo, www.svgrepo.com, Generator: SVG Repo Mixer Tools -->
<svg fill="#000000" height="800px" width="800px" version="1.1" id="Layer_1" xmlns="http://www.w3.org/2000/svg" xmlns:xlink="http://www.w3.org/1999/xlink" 
	 viewBox="0 0 511.999 511.999" xml:space="preserve">
<g>
	<g>
		<path d="M511.9,16.689C511.898,7.47,504.423,0,495.209,0c-9.214,0-16.689,7.47-16.689,16.689c0,18.767-2.59,36.9-6.986,54.322
			c2.705-9.824-3.744-19.127-12.73-20.482c-9.166-1.386-17.222,4.379-19.669,12.527c-1.118,4.154-0.14,8.475,1.833,12.149
			c1.876,3.625,5.179,6.737,9.534,8.243c8.689,3.133,18.503-2.062,20.909-11.961c-6.114,24.003-15.995,46.486-29.21,66.675
			c5.25-8.755,2.934-19.273-5.203-23.536c-8.145-4.268-18.398-1.885-22.786,5.388c-4.661,7.093-3.283,17.079,4.003,22.925
			c7.052,5.684,18.173,3.96,23.844-4.545c-13.42,20.448-30.141,38.474-49.361,53.503c8.15-6.07,8.623-17.568,2.486-24.011
			c-6.5-6.874-16.252-7.061-23.199-2.141c-6.766,5.149-8.326,15.515-3.513,23.114c5.015,7.894,15.651,9.395,23.808,3.35
			c-19.089,14.856-40.616,26.635-63.921,34.682c9.581-3.524,14.162-13.279,10.258-21.815c-3.752-8.167-13.299-12.53-21.291-9.666
			c-7.884,3.186-13.069,11.372-10.862,20.592c2.036,8.663,12.002,14.643,21.552,11.016c-22.624,7.77-46.788,12.191-72.017,12.191
			s-49.393-4.42-72.017-12.192c9.549,3.627,19.516-2.353,21.552-11.016c2.206-9.22-2.978-17.404-10.862-20.592
			c-7.992-2.864-17.539,1.5-21.291,9.666c-3.905,8.536,0.678,18.291,10.258,21.815c-23.306-8.047-44.832-19.827-63.921-34.682
			c8.156,6.045,18.793,4.543,23.807-3.35c4.813-7.598,3.253-17.964-3.513-23.114c-6.947-4.919-16.699-4.733-23.199,2.141
			c-6.137,6.442-5.664,17.941,2.486,24.011c-19.22-15.029-35.941-33.056-49.361-53.503c5.672,8.505,16.793,10.229,23.844,4.545
			c7.286-5.847,8.664-15.832,4.003-22.925c-4.389-7.272-14.641-9.656-22.786-5.388c-8.136,4.264-10.453,14.782-5.203,23.536
			c-13.217-20.189-23.097-42.672-29.21-66.675c2.408,9.898,12.22,15.093,20.909,11.961c4.355-1.506,7.658-4.618,9.534-8.243
			c1.973-3.674,2.952-7.994,1.832-12.149c-2.446-8.149-10.503-13.913-19.669-12.527c-8.987,1.355-15.435,10.658-12.73,20.482
			c-4.396-17.421-6.986-35.553-6.986-54.321C33.477,7.47,26.002,0,16.788,0C7.575,0,0.099,7.47,0.099,16.689
			c0,135.49,105.86,246.661,239.21,255.295v40.353c-9.509-6.473-21.408-11.021-36.322-11.021c-39.082,0-69.7,32.33-69.7,73.601
			c0,51.765,48.398,78.666,111.847,133.062c3.13,2.678,6.997,4.02,10.866,4.02c3.869,0,7.736-1.342,10.866-4.02
			c63.348-54.31,111.847-81.271,111.847-133.062c0-41.272-30.619-73.601-69.7-73.601c-14.914,0-26.814,4.548-36.322,11.021v-40.353
			C406.04,263.349,511.9,152.179,511.9,16.689z"/>
	</g>
</g>
<g>
	<g>
		<path d="M272.986,221.661c-0.893-9.173-8.498-16.297-16.986-15.829c-8.488-0.469-16.094,6.655-16.986,15.829
			c-0.893,9.173,6.712,17.069,16.986,17.549C266.273,238.728,273.878,230.833,272.986,221.661z"/>
	</g>
</g>
</svg>